HIERARCHY
ROOT Hips
{
	OFFSET 0.00000 0.00000 0.00000
	CHANNELS 6 Xposition Yposition Zposition Zrotation Yrotation Xrotation 
	JOINT LHipJoint
	{
		OFFSET 0 0 0
		CHANNELS 3 Zrotation Yrotation Xrotation
		JOINT LeftHip
		{
			OFFSET 1.34019 -1.87553 0.90315
			CHANNELS 3 Zrotation Yrotation Xrotation
			JOINT LeftKnee
			{
				OFFSET 2.55316 -7.01474 0.00000
				CHANNELS 3 Zrotation Yrotation Xrotation
				JOINT LeftAnkle
				{
					OFFSET 2.64657 -7.27139 0.00000
					CHANNELS 3 Zrotation Yrotation Xrotation
					JOINT LeftToe
					{
						OFFSET 0.24207 -0.66507 2.14489
						CHANNELS 3 Zrotation Yrotation Xrotation
						End Site
						{
							OFFSET 0.00000 -0.00000 1.12451
						}
					}
				}
			}
		}
	}
	JOINT RHipJoint
	{
		OFFSET 0 0 0
		CHANNELS 3 Zrotation Yrotation Xrotation
		JOINT RightHip
		{
			OFFSET -1.28320 -1.87553 0.90315
			CHANNELS 3 Zrotation Yrotation Xrotation
			JOINT RightKnee
			{
				OFFSET -2.60484 -7.15674 0.00000
				CHANNELS 3 Zrotation Yrotation Xrotation
				JOINT RightAnkle
				{
					OFFSET -2.60296 -7.15159 0.00000
					CHANNELS 3 Zrotation Yrotation Xrotation
					JOINT RightToe
					{
						OFFSET -0.31082 -0.85398 2.28998
						CHANNELS 3 Zrotation Yrotation Xrotation
						End Site
						{
							OFFSET -0.00000 -0.00000 1.21611
						}
					}
				}
			}
		}
	}
	JOINT lowerback
	{
		OFFSET 0 0 0
		CHANNELS 3 Zrotation Yrotation Xrotation
		JOINT Chest
		{
			OFFSET -0.00160 2.05581 -0.15156
			CHANNELS 3 Zrotation Yrotation Xrotation
			JOINT Chest2
			{
				OFFSET 0.04594 2.06326 -0.01617
				CHANNELS 3 Zrotation Yrotation Xrotation
				JOINT lowerneck
				{
					OFFSET 0 0 0
					CHANNELS 3 Zrotation Yrotation Xrotation
					JOINT Neck
					{
						OFFSET 0.03753 1.73883 0.26751
						CHANNELS 3 Zrotation Yrotation Xrotation
						JOINT Head
						{
							OFFSET -0.09795 1.76129 -0.31794
							CHANNELS 3 Zrotation Yrotation Xrotation
							End Site
							{
								OFFSET -0.03611 1.79987 -0.13846
							}
						}
					}
				}
				JOINT LeftCollar
				{
					OFFSET 0 0 0
					CHANNELS 3 Zrotation Yrotation Xrotation
					JOINT LeftShoulder
					{
						OFFSET 3.30667 1.29205 -0.22445
CHANNELS 3 Zrotation Xrotation Yrotation
						JOINT LeftElbow
						{
OFFSET 0 -4.927850 -0.000000
CHANNELS 3 Zrotation Xrotation Yrotation
							JOINT LeftWrist
							{
OFFSET 0 -3.440520 0.000000
CHANNELS 3 Zrotation Xrotation Yrotation
								JOINT lhand
								{
									OFFSET 0 0 0
CHANNELS 3 Zrotation Xrotation Yrotation
									JOINT LFingers
									{
OFFSET 0 -0.654330 0.000000
CHANNELS 3 Zrotation Xrotation Yrotation
										End Site
										{
OFFSET 0 -0.527530 0.000000
										}
									}
								}
								JOINT LThumb
								{
OFFSET 0 0.000000 0.000000
CHANNELS 3 Zrotation Xrotation Yrotation
									End Site
									{
OFFSET 0 -0.535590 0.535590
									}
								}
							}
						}
					}
				}
				JOINT RightCollar
				{
					OFFSET 0 0 0
					CHANNELS 3 Zrotation Yrotation Xrotation
					JOINT RightShoulder
					{
						OFFSET -3.20032 1.49783 -0.27688
CHANNELS 3 Zrotation Xrotation Yrotation
						JOINT RightElbow
						{
OFFSET 0 -5.091810 -0.000000
CHANNELS 3 Zrotation Xrotation Yrotation
							JOINT RightWrist
							{
OFFSET 0 -3.498650 -0.000000
CHANNELS 3 Zrotation Xrotation Yrotation
								JOINT rhand
								{
									OFFSET 0 0 0
CHANNELS 3 Zrotation Xrotation Yrotation
									JOINT RFingers
									{
OFFSET 0 -0.666410 0.000000
CHANNELS 3 Zrotation Xrotation Yrotation
										End Site
										{
OFFSET 0 -0.537280 0.000000
										}
									}
								}
								JOINT RThumb
								{
OFFSET 0 0.000000 0.000000
CHANNELS 3 Zrotation Xrotation Yrotation
									End Site
									{
OFFSET 0 -0.545480 0.545480
									}
								}
							}
						}
					}
				}
			}
		}
	}
}
MOTION
Frames: 9
Frame Time: 0.008333333333333333
1.911041 18.411710 -5.314175 -2.662513 -4.306564 8.862182 0.000000 0.000000 0.000000 -26.797614 -0.695134 7.281920 1.102714 6.671122 18.745128 0.016090 9.889032 6.932601 2.744342 -10.269131 -29.852830 0.000000 0.000000 0.000000 5.880668 -1.721280 -45.060763 -20.147086 -19.999015 90.430012 -0.204375 -5.161153 -11.983285 -0.238874 3.145108 -8.683023 -4.109983 1.672844 13.410274 2.216743 1.754000 -2.078566 4.348849 1.154642 -10.016403 7.147731 2.753177 -27.652683 -5.065511 2.286846 21.149670 -2.664621 0.937059 11.607557 0.000000 0.000000 0.000000 15.066523 7.874811 -39.545718 34.615755 -44.534716 14.543558 17.595456 -12.341442 7.212251 0.000000 0.000000 0.000000 -7.125000 0.000000 0.000000 -6.720611 22.433643 -3.671804 0.000000 0.000000 0.000000 -27.331609 26.210534 38.177610 -78.726236 -59.512112 -50.252759 -16.848427 -11.459954 -8.093693 0.000000 0.000000 0.000000 7.125000 0.000000 0.000000 7.245084 21.554356 4.108929
1.924960 18.587136 -5.045696 -2.931568 -4.036069 8.462007 0.000000 0.000000 0.000000 -26.446363 -1.064722 7.099207 1.252260 7.089384 19.982643 0.355686 10.256340 11.815501 2.559997 -9.942084 -28.793100 0.000000 0.000000 0.000000 6.280710 -2.171967 -44.080144 -19.830373 -19.998755 89.504043 -0.140044 -5.512284 -11.147691 -0.227837 3.072060 -8.479380 -3.710243 1.547381 13.206501 2.378961 1.675650 -2.002485 4.316331 1.093385 -9.796233 7.103269 2.717124 -27.360829 -5.150588 2.305027 21.276738 -2.687991 0.934355 11.605202 0.000000 0.000000 0.000000 14.753890 8.649281 -39.397569 34.017621 -44.096771 14.125676 17.149624 -11.573510 7.154380 0.000000 0.000000 0.000000 -7.125000 0.000000 0.000000 -7.047518 22.513310 -3.840202 0.000000 0.000000 0.000000 -27.690395 26.731237 38.803117 -76.962599 -59.344615 -48.734400 -16.652281 -11.521188 -8.024765 0.000000 0.000000 0.000000 7.125000 0.000000 0.000000 7.388572 21.635006 4.177956
1.935159 18.761892 -4.780621 -3.222226 -3.625301 8.073559 0.000000 0.000000 0.000000 -26.018267 -1.585582 6.354725 1.526109 7.790325 22.084001 0.776281 10.402916 16.189956 2.163516 -9.187221 -26.391294 0.000000 0.000000 0.000000 6.763724 -2.631814 -42.924818 -19.452372 -19.992010 88.398663 -0.079865 -5.862590 -10.309057 -0.221493 3.029469 -8.360720 -3.276695 1.400059 13.064012 2.537147 1.568804 -1.931426 4.264783 1.017876 -9.614292 7.044516 2.651259 -27.012091 -5.254679 2.294285 21.331107 -2.719809 0.914992 11.562497 0.000000 0.000000 0.000000 14.462889 9.364979 -39.264338 33.448067 -43.670791 13.730791 16.774042 -10.996080 7.116141 0.000000 0.000000 0.000000 -7.125000 0.000000 0.000000 -7.322941 22.568837 -3.983296 0.000000 0.000000 0.000000 -27.899477 27.206404 39.356946 -74.869539 -59.112949 -46.935988 -16.465049 -11.763287 -7.901451 0.000000 0.000000 0.000000 7.125000 0.000000 0.000000 7.527207 21.771103 4.234196
1.942497 18.932301 -4.519506 -3.552705 -3.096516 7.678483 0.000000 0.000000 0.000000 -25.506991 -2.212535 5.178745 1.931746 8.710060 24.900425 1.180096 10.230826 19.605414 1.683662 -8.157146 -23.201828 0.000000 0.000000 0.000000 7.333397 -3.091293 -41.589689 -19.022850 -19.976223 87.141822 -0.029086 -6.163978 -9.526649 -0.220015 3.019604 -8.333397 -2.794389 1.242971 12.994017 2.697218 1.453290 -1.853311 4.187775 0.936695 -9.465966 6.922054 2.536108 -26.667340 -5.334466 2.232731 21.392907 -2.740786 0.870707 11.518129 0.000000 0.000000 0.000000 14.194888 9.998303 -39.166975 32.916250 -43.264881 13.364901 16.456890 -10.625494 7.056537 0.000000 0.000000 0.000000 -7.125000 0.000000 0.000000 -7.556440 22.643432 -4.099465 0.000000 0.000000 0.000000 -27.964825 27.639584 39.803709 -72.555613 -58.813911 -44.953254 -16.282153 -12.060844 -7.721800 0.000000 0.000000 0.000000 7.125000 0.000000 0.000000 7.664551 21.964712 4.278733
1.947078 19.088638 -4.264889 -3.951318 -2.487135 7.264038 0.000000 0.000000 0.000000 -24.896211 -2.889253 3.717567 2.461109 9.755076 28.196805 1.468211 9.773342 21.757261 1.242037 -7.050962 -19.873243 0.000000 0.000000 0.000000 7.996031 -3.514338 -40.117015 -18.561740 -19.949495 85.791394 0.010206 -6.388825 -8.838051 -0.224068 3.047273 -8.410329 -2.246346 1.089307 13.003327 2.869364 1.351539 -1.756604 4.082358 0.859776 -9.344924 6.760715 2.389329 -26.388788 -5.396833 2.133248 21.499821 -2.756147 0.807944 11.499354 0.000000 0.000000 0.000000 13.941656 10.536679 -39.105902 32.414491 -42.874588 13.022163 16.250381 -10.425961 7.031054 0.000000 0.000000 0.000000 -7.125000 0.000000 0.000000 -7.708155 22.678114 -4.177078 0.000000 0.000000 0.000000 -27.902317 28.021486 40.125317 -70.123993 -58.449111 -42.876912 -16.116528 -12.379290 -7.507273 0.000000 0.000000 0.000000 7.125000 0.000000 0.000000 7.791055 22.193008 4.309760
1.949831 19.227986 -4.016510 -4.455895 -1.846398 6.815955 0.000000 0.000000 0.000000 -24.158292 -3.559584 2.072102 3.101254 10.847808 31.778263 1.574727 9.214843 22.496022 0.924489 -6.116951 -17.126989 0.000000 0.000000 0.000000 8.781776 -3.869250 -38.514286 -18.080294 -19.910718 84.379090 0.038206 -6.534115 -8.270313 -0.230574 3.090689 -8.531392 -1.610053 0.954901 13.090954 3.069108 1.290925 -1.633592 3.947116 0.799594 -9.244316 6.595793 2.224386 -26.170564 -5.457013 2.004658 21.630994 -2.775675 0.731356 11.498595 0.000000 0.000000 0.000000 13.689863 10.985871 -39.079801 31.948487 -42.505672 12.706146 16.144434 -10.371067 7.021426 0.000000 0.000000 0.000000 -7.125000 0.000000 0.000000 -7.785908 22.692213 -4.217452 0.000000 0.000000 0.000000 -27.731984 28.361908 40.315707 -67.660352 -58.024186 -40.781971 -15.971212 -12.673660 -7.178462 0.000000 0.000000 0.000000 7.125000 0.000000 0.000000 7.907275 22.537402 4.312545
1.951823 19.350189 -3.773026 -5.082712 -1.224065 6.336295 0.000000 0.000000 0.000000 -23.277975 -4.166935 0.308783 3.817457 11.907810 35.413936 1.503594 8.750739 21.960413 0.735207 -5.475274 -15.269988 0.000000 0.000000 0.000000 9.704654 -4.127315 -36.797879 -17.582132 -19.858794 82.914367 0.056254 -6.608331 -7.833208 -0.242418 3.168178 -8.747468 -0.885287 0.851550 13.243438 3.302407 1.289060 -1.478794 3.784985 0.764776 -9.151450 6.416843 2.045294 -26.031561 -5.486384 1.847462 21.783911 -2.786733 0.644034 11.518192 0.000000 0.000000 0.000000 13.433456 11.361127 -39.073925 31.526091 -42.165915 12.421664 16.150933 -10.384299 7.047316 0.000000 0.000000 0.000000 -7.125000 0.000000 0.000000 -7.780284 22.665262 -4.219164 0.000000 0.000000 0.000000 -27.467457 28.648484 40.376831 -65.195983 -57.540183 -38.696772 -15.842972 -12.976352 -6.758400 0.000000 0.000000 0.000000 7.125000 0.000000 0.000000 8.015652 22.974324 4.291896
1.953349 19.456568 -3.532704 -5.827001 -0.658863 5.834327 0.000000 0.000000 0.000000 -22.253476 -4.659818 -1.517555 4.553889 12.861271 38.854288 1.297326 8.497287 20.389673 0.645802 -5.140355 -14.309517 0.000000 0.000000 0.000000 10.762597 -4.274355 -34.985477 -17.065334 -19.792054 81.390784 0.069070 -6.661982 -7.500698 -0.256123 3.256141 -8.992768 -0.094157 0.791347 13.451536 3.571001 1.360308 -1.302941 3.607674 0.764116 -9.072677 6.246069 1.857519 -25.908831 -5.494669 1.666143 21.898388 -2.794439 0.548720 11.524442 0.000000 0.000000 0.000000 13.165218 11.688124 -39.089590 31.153245 -41.861520 12.172028 16.230643 -10.484454 7.093069 0.000000 0.000000 0.000000 -7.125000 0.000000 0.000000 -7.720611 22.614900 -4.195200 0.000000 0.000000 0.000000 -27.112550 28.900958 40.311155 -62.723650 -56.992057 -36.616643 -15.788145 -13.318534 -6.341568 0.000000 0.000000 0.000000 7.125000 0.000000 0.000000 8.071837 23.404773 4.242114
1.954825 19.548591 -3.292936 -6.688612 -0.184777 5.319608 0.000000 0.000000 0.000000 -21.077389 -4.992892 -3.354647 5.242240 13.650931 41.857700 1.012413 8.467617 18.051074 0.619509 -5.037024 -14.014321 0.000000 0.000000 0.000000 11.962704 -4.308365 -33.087759 -16.526008 -19.707996 79.794895 0.081613 -6.758320 -7.234200 -0.270265 3.344407 -9.239110 0.751312 0.775693 13.700936 3.873440 1.505695 -1.107775 3.420057 0.798597 -9.000136 6.071216 1.665997 -25.839618 -5.465843 1.466829 22.012027 -2.790762 0.449381 11.539062 0.000000 0.000000 0.000000 12.883919 11.984818 -39.094491 30.847787 -41.609096 11.968648 16.305375 -10.670885 7.077370 0.000000 0.000000 0.000000 -7.125000 0.000000 0.000000 -7.666505 22.628065 -4.162974 0.000000 0.000000 0.000000 -26.673472 29.100222 40.138275 -60.224316 -56.368547 -34.527985 -15.838980 -13.746478 -5.985255 0.000000 0.000000 0.000000 7.125000 0.000000 0.000000 8.048997 23.769473 4.161624
